<svg width="250" height="61" viewBox="0 0 250 61" fill="none" xmlns="http://www.w3.org/2000/svg">
<path d="M9.15 22.42C7.73 22.42 6.44 22.12 5.28 21.52C4.14 20.92 3.23 20.05 2.55 18.91C1.89 17.77 1.56 16.4 1.56 14.8V14.41C1.56 12.81 1.89 11.45 2.55 10.33C3.23 9.19 4.14 8.32 5.28 7.72C6.44 7.1 7.73 6.79 9.15 6.79C10.57 6.79 11.78 7.05 12.78 7.57C13.78 8.09 14.58 8.78 15.18 9.64C15.8 10.5 16.2 11.45 16.38 12.49L13.38 13.12C13.28 12.46 13.07 11.86 12.75 11.32C12.43 10.78 11.98 10.35 11.4 10.03C10.82 9.71 10.09 9.55 9.21 9.55C8.35 9.55 7.57 9.75 6.87 10.15C6.19 10.53 5.65 11.09 5.25 11.83C4.85 12.55 4.65 13.43 4.65 14.47V14.74C4.65 15.78 4.85 16.67 5.25 17.41C5.65 18.15 6.19 18.71 6.87 19.09C7.57 19.47 8.35 19.66 9.21 19.66C10.51 19.66 11.5 19.33 12.18 18.67C12.86 17.99 13.29 17.13 13.47 16.09L16.47 16.78C16.23 17.8 15.8 18.74 15.18 19.6C14.58 20.46 13.78 21.15 12.78 21.67C11.78 22.17 10.57 22.42 9.15 22.42ZM26.3639 22.42C24.8839 22.42 23.5639 22.12 22.4039 21.52C21.2639 20.9 20.3639 20.02 19.7039 18.88C19.0439 17.74 18.7139 16.39 18.7139 14.83V14.38C18.7139 12.82 19.0439 11.48 19.7039 10.36C20.3639 9.22 21.2639 8.34 22.4039 7.72C23.5639 7.1 24.8839 6.79 26.3639 6.79C27.8439 6.79 29.1639 7.1 30.3239 7.72C31.4839 8.34 32.3939 9.22 33.0539 10.36C33.7139 11.48 34.0439 12.82 34.0439 14.38V14.83C34.0439 16.39 33.7139 17.74 33.0539 18.88C32.3939 20.02 31.4839 20.9 30.3239 21.52C29.1639 22.12 27.8439 22.42 26.3639 22.42ZM26.3639 19.66C27.7239 19.66 28.8239 19.23 29.6639 18.37C30.5239 17.49 30.9539 16.28 30.9539 14.74V14.47C30.9539 12.93 30.5339 11.73 29.6939 10.87C28.8539 9.99 27.7439 9.55 26.3639 9.55C25.0239 9.55 23.9239 9.99 23.0639 10.87C22.2239 11.73 21.8039 12.93 21.8039 14.47V14.74C21.8039 16.28 22.2239 17.49 23.0639 18.37C23.9239 19.23 25.0239 19.66 26.3639 19.66ZM37.2909 22V7.21H40.3209V8.95H40.8009C41.0809 8.43 41.5309 7.97 42.1509 7.57C42.7709 7.17 43.6109 6.97 44.6709 6.97C45.7709 6.97 46.6509 7.2 47.3109 7.66C47.9909 8.1 48.5009 8.67 48.8409 9.37H49.3209C49.6609 8.69 50.1509 8.12 50.7909 7.66C51.4509 7.2 52.3809 6.97 53.5809 6.97C54.5409 6.97 55.3909 7.17 56.1309 7.57C56.8709 7.95 57.4609 8.53 57.9009 9.31C58.3409 10.07 58.5609 11.02 58.5609 12.16V22H55.4709V12.4C55.4709 11.5 55.2209 10.81 54.7209 10.33C54.2409 9.83 53.5509 9.58 52.6509 9.58C51.6909 9.58 50.9209 9.89 50.3409 10.51C49.7609 11.13 49.4709 12.02 49.4709 13.18V22H46.3809V12.4C46.3809 11.5 46.1309 10.81 45.6309 10.33C45.1509 9.83 44.4609 9.58 43.5609 9.58C42.6009 9.58 41.8309 9.89 41.2509 10.51C40.6709 11.13 40.3809 12.02 40.3809 13.18V22H37.2909ZM62.4136 28V7.21H65.4436V9.34H65.9236C66.3036 8.68 66.8736 8.09 67.6336 7.57C68.4136 7.05 69.5236 6.79 70.9636 6.79C72.2036 6.79 73.3336 7.09 74.3536 7.69C75.3936 8.29 76.2236 9.16 76.8436 10.3C77.4836 11.42 77.8036 12.78 77.8036 14.38V14.83C77.8036 16.43 77.4936 17.8 76.8736 18.94C76.2536 20.06 75.4236 20.92 74.3836 21.52C73.3436 22.12 72.2036 22.42 70.9636 22.42C70.0036 22.42 69.1936 22.3 68.5336 22.06C67.8736 21.82 67.3436 21.52 66.9436 21.16C66.5436 20.78 66.2236 20.39 65.9836 19.99H65.5036V28H62.4136ZM70.0636 19.72C71.4236 19.72 72.5336 19.29 73.3936 18.43C74.2536 17.57 74.6836 16.34 74.6836 14.74V14.47C74.6836 12.89 74.2436 11.67 73.3636 10.81C72.5036 9.95 71.4036 9.52 70.0636 9.52C68.7436 9.52 67.6436 9.95 66.7636 10.81C65.9036 11.67 65.4736 12.89 65.4736 14.47V14.74C65.4736 16.34 65.9036 17.57 66.7636 18.43C67.6436 19.29 68.7436 19.72 70.0636 19.72ZM85.6223 22.42C84.5623 22.42 83.6123 22.24 82.7723 21.88C81.9523 21.52 81.2923 20.99 80.7923 20.29C80.3123 19.59 80.0723 18.74 80.0723 17.74C80.0723 16.72 80.3123 15.88 80.7923 15.22C81.2923 14.54 81.9623 14.03 82.8023 13.69C83.6623 13.35 84.6323 13.18 85.7123 13.18H90.2123V12.22C90.2123 11.36 89.9523 10.67 89.4323 10.15C88.9123 9.63 88.1123 9.37 87.0323 9.37C85.9723 9.37 85.1623 9.62 84.6023 10.12C84.0423 10.62 83.6723 11.27 83.4923 12.07L80.6123 11.14C80.8523 10.34 81.2323 9.62 81.7523 8.98C82.2923 8.32 83.0023 7.79 83.8823 7.39C84.7623 6.99 85.8223 6.79 87.0623 6.79C88.9823 6.79 90.4923 7.28 91.5923 8.26C92.6923 9.24 93.2423 10.63 93.2423 12.43V18.52C93.2423 19.12 93.5223 19.42 94.0823 19.42H95.3423V22H93.0323C92.3323 22 91.7623 21.82 91.3223 21.46C90.8823 21.1 90.6623 20.61 90.6623 19.99V19.9H90.2123C90.0523 20.2 89.8123 20.55 89.4923 20.95C89.1723 21.35 88.7023 21.7 88.0823 22C87.4623 22.28 86.6423 22.42 85.6223 22.42ZM86.0723 19.87C87.3123 19.87 88.3123 19.52 89.0723 18.82C89.8323 18.1 90.2123 17.12 90.2123 15.88V15.58H85.8923C85.0723 15.58 84.4123 15.76 83.9123 16.12C83.4123 16.46 83.1623 16.97 83.1623 17.65C83.1623 18.33 83.4223 18.87 83.9423 19.27C84.4623 19.67 85.1723 19.87 86.0723 19.87ZM97.7468 22V7.21H100.777V8.95H101.257C101.497 8.33 101.877 7.88 102.397 7.6C102.937 7.3 103.597 7.15 104.377 7.15H106.147V9.94H104.257C103.257 9.94 102.437 10.22 101.797 10.78C101.157 11.32 100.837 12.16 100.837 13.3V22H97.7468ZM115.001 22.42C113.501 22.42 112.191 22.11 111.071 21.49C109.951 20.85 109.071 19.96 108.431 18.82C107.811 17.66 107.501 16.32 107.501 14.8V14.44C107.501 12.9 107.811 11.56 108.431 10.42C109.051 9.26 109.911 8.37 111.011 7.75C112.131 7.11 113.421 6.79 114.881 6.79C116.301 6.79 117.541 7.11 118.601 7.75C119.681 8.37 120.521 9.24 121.121 10.36C121.721 11.48 122.021 12.79 122.021 14.29V15.46H110.651C110.691 16.76 111.121 17.8 111.941 18.58C112.781 19.34 113.821 19.72 115.061 19.72C116.221 19.72 117.091 19.46 117.671 18.94C118.271 18.42 118.731 17.82 119.051 17.14L121.601 18.46C121.321 19.02 120.911 19.61 120.371 20.23C119.851 20.85 119.161 21.37 118.301 21.79C117.441 22.21 116.341 22.42 115.001 22.42ZM110.681 13.09H118.871C118.791 11.97 118.391 11.1 117.671 10.48C116.951 9.84 116.011 9.52 114.851 9.52C113.691 9.52 112.741 9.84 112.001 10.48C111.281 11.1 110.841 11.97 110.681 13.09ZM139.087 22.42C137.467 22.42 136.047 22.18 134.827 21.7C133.627 21.22 132.687 20.53 132.007 19.63C131.347 18.71 131.017 17.64 131.017 16.42V16.09C131.017 15.09 131.207 14.27 131.587 13.63C131.987 12.97 132.467 12.46 133.027 12.1C133.607 11.72 134.147 11.47 134.647 11.35V10.87C134.147 10.73 133.637 10.48 133.117 10.12C132.597 9.74 132.167 9.25 131.827 8.65C131.507 8.03 131.347 7.29 131.347 6.43V6.1C131.347 4.98 131.667 4.01 132.307 3.19C132.967 2.37 133.877 1.73 135.037 1.27C136.197 0.809999 137.547 0.579999 139.087 0.579999C140.607 0.579999 141.947 0.809999 143.107 1.27C144.267 1.73 145.167 2.37 145.807 3.19C146.467 4.01 146.797 4.98 146.797 6.1V6.43C146.797 7.29 146.627 8.03 146.287 8.65C145.967 9.25 145.557 9.74 145.057 10.12C144.557 10.48 144.047 10.73 143.527 10.87V11.35C144.047 11.47 144.587 11.72 145.147 12.1C145.707 12.46 146.177 12.97 146.557 13.63C146.937 14.27 147.127 15.09 147.127 16.09V16.42C147.127 17.64 146.787 18.71 146.107 19.63C145.447 20.53 144.507 21.22 143.287 21.7C142.087 22.18 140.687 22.42 139.087 22.42ZM139.087 19.6C140.607 19.6 141.797 19.31 142.657 18.73C143.537 18.13 143.977 17.3 143.977 16.24V16C143.977 14.92 143.547 14.09 142.687 13.51C141.847 12.91 140.647 12.61 139.087 12.61C137.527 12.61 136.317 12.91 135.457 13.51C134.597 14.09 134.167 14.92 134.167 16V16.24C134.167 17.3 134.597 18.13 135.457 18.73C136.337 19.31 137.547 19.6 139.087 19.6ZM139.087 9.79C140.507 9.79 141.617 9.52 142.417 8.98C143.237 8.44 143.647 7.68 143.647 6.7V6.46C143.647 5.48 143.237 4.73 142.417 4.21C141.597 3.67 140.487 3.4 139.087 3.4C137.667 3.4 136.547 3.67 135.727 4.21C134.907 4.73 134.497 5.48 134.497 6.46V6.7C134.497 7.68 134.897 8.44 135.697 8.98C136.517 9.52 137.647 9.79 139.087 9.79ZM162.643 22.27C161.523 22.27 160.523 22.02 159.643 21.52C158.763 21.02 158.073 20.31 157.573 19.39C157.073 18.47 156.823 17.37 156.823 16.09V7.21H159.913V15.88C159.913 17.16 160.233 18.11 160.873 18.73C161.513 19.33 162.403 19.63 163.543 19.63C164.803 19.63 165.813 19.21 166.573 18.37C167.353 17.51 167.743 16.28 167.743 14.68V7.21H170.833V22H167.803V19.78H167.323C167.043 20.38 166.543 20.95 165.823 21.49C165.103 22.01 164.043 22.27 162.643 22.27ZM174.801 22V7.21H177.831V9.43H178.311C178.591 8.83 179.091 8.27 179.811 7.75C180.531 7.23 181.601 6.97 183.021 6.97C184.141 6.97 185.131 7.22 185.991 7.72C186.871 8.22 187.561 8.93 188.061 9.85C188.561 10.75 188.811 11.84 188.811 13.12V22H185.721V13.36C185.721 12.08 185.401 11.14 184.761 10.54C184.121 9.92 183.241 9.61 182.121 9.61C180.841 9.61 179.811 10.03 179.031 10.87C178.271 11.71 177.891 12.93 177.891 14.53V22H174.801ZM192.658 22V7.21H195.748V22H192.658ZM194.218 5.2C193.618 5.2 193.108 5.01 192.688 4.63C192.288 4.23 192.088 3.72 192.088 3.1C192.088 2.48 192.288 1.98 192.688 1.6C193.108 1.2 193.618 0.999999 194.218 0.999999C194.838 0.999999 195.348 1.2 195.748 1.6C196.148 1.98 196.348 2.48 196.348 3.1C196.348 3.72 196.148 4.23 195.748 4.63C195.348 5.01 194.838 5.2 194.218 5.2ZM211.314 28V19.99H210.834C210.614 20.39 210.294 20.78 209.874 21.16C209.454 21.52 208.914 21.82 208.254 22.06C207.614 22.3 206.814 22.42 205.854 22.42C204.614 22.42 203.474 22.12 202.434 21.52C201.394 20.92 200.564 20.06 199.944 18.94C199.324 17.8 199.014 16.43 199.014 14.83V14.38C199.014 12.78 199.324 11.42 199.944 10.3C200.584 9.16 201.424 8.29 202.464 7.69C203.504 7.09 204.634 6.79 205.854 6.79C207.294 6.79 208.394 7.05 209.154 7.57C209.934 8.09 210.514 8.68 210.894 9.34H211.374V7.21H214.404V28H211.314ZM206.724 19.72C208.084 19.72 209.194 19.29 210.054 18.43C210.914 17.57 211.344 16.34 211.344 14.74V14.47C211.344 12.89 210.904 11.67 210.024 10.81C209.164 9.95 208.064 9.52 206.724 9.52C205.404 9.52 204.304 9.95 203.424 10.81C202.564 11.67 202.134 12.89 202.134 14.47V14.74C202.134 16.34 202.564 17.57 203.424 18.43C204.304 19.29 205.404 19.72 206.724 19.72ZM224.023 22.27C222.903 22.27 221.903 22.02 221.023 21.52C220.143 21.02 219.453 20.31 218.953 19.39C218.453 18.47 218.203 17.37 218.203 16.09V7.21H221.293V15.88C221.293 17.16 221.613 18.11 222.253 18.73C222.893 19.33 223.783 19.63 224.923 19.63C226.183 19.63 227.193 19.21 227.953 18.37C228.733 17.51 229.123 16.28 229.123 14.68V7.21H232.213V22H229.183V19.78H228.703C228.423 20.38 227.923 20.95 227.203 21.49C226.483 22.01 225.423 22.27 224.023 22.27ZM242.96 22.42C241.46 22.42 240.15 22.11 239.03 21.49C237.91 20.85 237.03 19.96 236.39 18.82C235.77 17.66 235.46 16.32 235.46 14.8V14.44C235.46 12.9 235.77 11.56 236.39 10.42C237.01 9.26 237.87 8.37 238.97 7.75C240.09 7.11 241.38 6.79 242.84 6.79C244.26 6.79 245.5 7.11 246.56 7.75C247.64 8.37 248.48 9.24 249.08 10.36C249.68 11.48 249.98 12.79 249.98 14.29V15.46H238.61C238.65 16.76 239.08 17.8 239.9 18.58C240.74 19.34 241.78 19.72 243.02 19.72C244.18 19.72 245.05 19.46 245.63 18.94C246.23 18.42 246.69 17.82 247.01 17.14L249.56 18.46C249.28 19.02 248.87 19.61 248.33 20.23C247.81 20.85 247.12 21.37 246.26 21.79C245.4 22.21 244.3 22.42 242.96 22.42ZM238.64 13.09H246.83C246.75 11.97 246.35 11.1 245.63 10.48C244.91 9.84 243.97 9.52 242.81 9.52C241.65 9.52 240.7 9.84 239.96 10.48C239.24 11.1 238.8 11.97 238.64 13.09ZM0.63 55L6.63 34H12.33L18.3 55H14.97L13.59 50.05H5.37L3.99 55H0.63ZM6.18 47.05H12.78L9.72 36.01H9.24L6.18 47.05ZM20.5451 55V34H23.7851V55H20.5451ZM41.5688 55.42C40.1488 55.42 38.8588 55.12 37.6988 54.52C36.5588 53.92 35.6488 53.05 34.9688 51.91C34.3088 50.77 33.9788 49.4 33.9788 47.8V47.41C33.9788 45.81 34.3088 44.45 34.9688 43.33C35.6488 42.19 36.5588 41.32 37.6988 40.72C38.8588 40.1 40.1488 39.79 41.5688 39.79C42.9888 39.79 44.1988 40.05 45.1988 40.57C46.1988 41.09 46.9988 41.78 47.5988 42.64C48.2188 43.5 48.6188 44.45 48.7988 45.49L45.7988 46.12C45.6988 45.46 45.4888 44.86 45.1688 44.32C44.8488 43.78 44.3988 43.35 43.8188 43.03C43.2388 42.71 42.5088 42.55 41.6288 42.55C40.7688 42.55 39.9888 42.75 39.2888 43.15C38.6088 43.53 38.0688 44.09 37.6688 44.83C37.2688 45.55 37.0688 46.43 37.0688 47.47V47.74C37.0688 48.78 37.2688 49.67 37.6688 50.41C38.0688 51.15 38.6088 51.71 39.2888 52.09C39.9888 52.47 40.7688 52.66 41.6288 52.66C42.9288 52.66 43.9188 52.33 44.5988 51.67C45.2788 50.99 45.7088 50.13 45.8888 49.09L48.8888 49.78C48.6488 50.8 48.2188 51.74 47.5988 52.6C46.9988 53.46 46.1988 54.15 45.1988 54.67C44.1988 55.17 42.9888 55.42 41.5688 55.42ZM56.4427 55.42C55.3827 55.42 54.4327 55.24 53.5927 54.88C52.7727 54.52 52.1127 53.99 51.6127 53.29C51.1327 52.59 50.8927 51.74 50.8927 50.74C50.8927 49.72 51.1327 48.88 51.6127 48.22C52.1127 47.54 52.7827 47.03 53.6227 46.69C54.4827 46.35 55.4527 46.18 56.5327 46.18H61.0327V45.22C61.0327 44.36 60.7727 43.67 60.2527 43.15C59.7327 42.63 58.9327 42.37 57.8527 42.37C56.7927 42.37 55.9827 42.62 55.4227 43.12C54.8627 43.62 54.4927 44.27 54.3127 45.07L51.4327 44.14C51.6727 43.34 52.0527 42.62 52.5727 41.98C53.1127 41.32 53.8227 40.79 54.7027 40.39C55.5827 39.99 56.6427 39.79 57.8827 39.79C59.8027 39.79 61.3127 40.28 62.4127 41.26C63.5127 42.24 64.0627 43.63 64.0627 45.43V51.52C64.0627 52.12 64.3427 52.42 64.9027 52.42H66.1627V55H63.8527C63.1527 55 62.5827 54.82 62.1427 54.46C61.7027 54.1 61.4827 53.61 61.4827 52.99V52.9H61.0327C60.8727 53.2 60.6327 53.55 60.3127 53.95C59.9927 54.35 59.5227 54.7 58.9027 55C58.2827 55.28 57.4627 55.42 56.4427 55.42ZM56.8927 52.87C58.1327 52.87 59.1327 52.52 59.8927 51.82C60.6527 51.1 61.0327 50.12 61.0327 48.88V48.58H56.7127C55.8927 48.58 55.2327 48.76 54.7327 49.12C54.2327 49.46 53.9827 49.97 53.9827 50.65C53.9827 51.33 54.2427 51.87 54.7627 52.27C55.2827 52.67 55.9927 52.87 56.8927 52.87ZM68.5671 61V40.21H71.5971V42.34H72.0771C72.4571 41.68 73.0271 41.09 73.7871 40.57C74.5671 40.05 75.6771 39.79 77.1171 39.79C78.3571 39.79 79.4871 40.09 80.5071 40.69C81.5471 41.29 82.3771 42.16 82.9971 43.3C83.6371 44.42 83.9571 45.78 83.9571 47.38V47.83C83.9571 49.43 83.6471 50.8 83.0271 51.94C82.4071 53.06 81.5771 53.92 80.5371 54.52C79.4971 55.12 78.3571 55.42 77.1171 55.42C76.1571 55.42 75.3471 55.3 74.6871 55.06C74.0271 54.82 73.4971 54.52 73.0971 54.16C72.6971 53.78 72.3771 53.39 72.1371 52.99H71.6571V61H68.5671ZM76.2171 52.72C77.5771 52.72 78.6871 52.29 79.5471 51.43C80.4071 50.57 80.8371 49.34 80.8371 47.74V47.47C80.8371 45.89 80.3971 44.67 79.5171 43.81C78.6571 42.95 77.5571 42.52 76.2171 42.52C74.8971 42.52 73.7971 42.95 72.9171 43.81C72.0571 44.67 71.6271 45.89 71.6271 47.47V47.74C71.6271 49.34 72.0571 50.57 72.9171 51.43C73.7971 52.29 74.8971 52.72 76.2171 52.72ZM91.7759 55.42C90.7159 55.42 89.7659 55.24 88.9259 54.88C88.1059 54.52 87.4459 53.99 86.9459 53.29C86.4659 52.59 86.2259 51.74 86.2259 50.74C86.2259 49.72 86.4659 48.88 86.9459 48.22C87.4459 47.54 88.1159 47.03 88.9559 46.69C89.8159 46.35 90.7859 46.18 91.8659 46.18H96.3659V45.22C96.3659 44.36 96.1059 43.67 95.5859 43.15C95.0659 42.63 94.2659 42.37 93.1859 42.37C92.1259 42.37 91.3159 42.62 90.7559 43.12C90.1959 43.62 89.8259 44.27 89.6459 45.07L86.7659 44.14C87.0059 43.34 87.3859 42.62 87.9059 41.98C88.4459 41.32 89.1559 40.79 90.0359 40.39C90.9159 39.99 91.9759 39.79 93.2159 39.79C95.1359 39.79 96.6459 40.28 97.7459 41.26C98.8459 42.24 99.3959 43.63 99.3959 45.43V51.52C99.3959 52.12 99.6759 52.42 100.236 52.42H101.496V55H99.1859C98.4859 55 97.9159 54.82 97.4759 54.46C97.0359 54.1 96.8159 53.61 96.8159 52.99V52.9H96.3659C96.2059 53.2 95.9659 53.55 95.6459 53.95C95.3259 54.35 94.8559 54.7 94.2359 55C93.6159 55.28 92.7959 55.42 91.7759 55.42ZM92.2259 52.87C93.4659 52.87 94.4659 52.52 95.2259 51.82C95.9859 51.1 96.3659 50.12 96.3659 48.88V48.58H92.0459C91.2259 48.58 90.5659 48.76 90.0659 49.12C89.5659 49.46 89.3159 49.97 89.3159 50.65C89.3159 51.33 89.5759 51.87 90.0959 52.27C90.6159 52.67 91.3259 52.87 92.2259 52.87ZM112.45 55.42C111.01 55.42 109.9 55.16 109.12 54.64C108.36 54.12 107.79 53.54 107.41 52.9H106.93V55H103.9V34H106.99V42.22H107.47C107.71 41.82 108.03 41.44 108.43 41.08C108.83 40.7 109.36 40.39 110.02 40.15C110.68 39.91 111.49 39.79 112.45 39.79C113.69 39.79 114.83 40.09 115.87 40.69C116.91 41.29 117.74 42.16 118.36 43.3C118.98 44.44 119.29 45.8 119.29 47.38V47.83C119.29 49.43 118.97 50.8 118.33 51.94C117.71 53.06 116.88 53.92 115.84 54.52C114.82 55.12 113.69 55.42 112.45 55.42ZM111.55 52.72C112.89 52.72 113.99 52.29 114.85 51.43C115.73 50.57 116.17 49.34 116.17 47.74V47.47C116.17 45.89 115.74 44.67 114.88 43.81C114.02 42.95 112.91 42.52 111.55 42.52C110.23 42.52 109.13 42.95 108.25 43.81C107.39 44.67 106.96 45.89 106.96 47.47V47.74C106.96 49.34 107.39 50.57 108.25 51.43C109.13 52.29 110.23 52.72 111.55 52.72ZM122.519 55V40.21H125.609V55H122.519ZM124.079 38.2C123.479 38.2 122.969 38.01 122.549 37.63C122.149 37.23 121.949 36.72 121.949 36.1C121.949 35.48 122.149 34.98 122.549 34.6C122.969 34.2 123.479 34 124.079 34C124.699 34 125.209 34.2 125.609 34.6C126.009 34.98 126.209 35.48 126.209 36.1C126.209 36.72 126.009 37.23 125.609 37.63C125.209 38.01 124.699 38.2 124.079 38.2ZM129.595 55V34H132.685V55H129.595ZM136.671 55V40.21H139.761V55H136.671ZM138.231 38.2C137.631 38.2 137.121 38.01 136.701 37.63C136.301 37.23 136.101 36.72 136.101 36.1C136.101 35.48 136.301 34.98 136.701 34.6C137.121 34.2 137.631 34 138.231 34C138.851 34 139.361 34.2 139.761 34.6C140.161 34.98 140.361 35.48 140.361 36.1C140.361 36.72 140.161 37.23 139.761 37.63C139.361 38.01 138.851 38.2 138.231 38.2ZM149.296 55C148.396 55 147.676 54.73 147.136 54.19C146.616 53.65 146.356 52.93 146.356 52.03V42.82H142.276V40.21H146.356V35.32H149.446V40.21H153.856V42.82H149.446V51.49C149.446 52.09 149.726 52.39 150.286 52.39H153.376V55H149.296ZM156.887 55V40.21H159.977V55H156.887ZM158.447 38.2C157.847 38.2 157.337 38.01 156.917 37.63C156.517 37.23 156.317 36.72 156.317 36.1C156.317 35.48 156.517 34.98 156.917 34.6C157.337 34.2 157.847 34 158.447 34C159.067 34 159.577 34.2 159.977 34.6C160.377 34.98 160.577 35.48 160.577 36.1C160.577 36.72 160.377 37.23 159.977 37.63C159.577 38.01 159.067 38.2 158.447 38.2ZM170.742 55.42C169.242 55.42 167.932 55.11 166.812 54.49C165.692 53.85 164.812 52.96 164.172 51.82C163.552 50.66 163.242 49.32 163.242 47.8V47.44C163.242 45.9 163.552 44.56 164.172 43.42C164.792 42.26 165.652 41.37 166.752 40.75C167.872 40.11 169.162 39.79 170.622 39.79C172.042 39.79 173.282 40.11 174.342 40.75C175.422 41.37 176.262 42.24 176.862 43.36C177.462 44.48 177.762 45.79 177.762 47.29V48.46H166.392C166.432 49.76 166.862 50.8 167.682 51.58C168.522 52.34 169.562 52.72 170.802 52.72C171.962 52.72 172.832 52.46 173.412 51.94C174.012 51.42 174.472 50.82 174.792 50.14L177.342 51.46C177.062 52.02 176.652 52.61 176.112 53.23C175.592 53.85 174.902 54.37 174.042 54.79C173.182 55.21 172.082 55.42 170.742 55.42ZM166.422 46.09H174.612C174.532 44.97 174.132 44.1 173.412 43.48C172.692 42.84 171.752 42.52 170.592 42.52C169.432 42.52 168.482 42.84 167.742 43.48C167.022 44.1 166.582 44.97 166.422 46.09ZM186.942 55.42C185.062 55.42 183.502 55 182.262 54.16C181.022 53.32 180.262 52.05 179.982 50.35L182.862 49.66C183.022 50.48 183.292 51.13 183.672 51.61C184.052 52.09 184.522 52.43 185.082 52.63C185.662 52.83 186.282 52.93 186.942 52.93C187.922 52.93 188.672 52.74 189.192 52.36C189.732 51.98 190.002 51.49 190.002 50.89C190.002 50.29 189.752 49.85 189.252 49.57C188.752 49.29 188.012 49.06 187.032 48.88L186.012 48.7C185.012 48.52 184.102 48.26 183.282 47.92C182.462 47.58 181.812 47.11 181.332 46.51C180.852 45.91 180.612 45.14 180.612 44.2C180.612 42.8 181.132 41.72 182.172 40.96C183.212 40.18 184.592 39.79 186.312 39.79C187.972 39.79 189.332 40.17 190.392 40.93C191.472 41.67 192.172 42.68 192.492 43.96L189.612 44.77C189.432 43.87 189.052 43.24 188.472 42.88C187.892 42.5 187.172 42.31 186.312 42.31C185.472 42.31 184.812 42.47 184.332 42.79C183.852 43.09 183.612 43.52 183.612 44.08C183.612 44.68 183.842 45.12 184.302 45.4C184.782 45.68 185.422 45.89 186.222 46.03L187.272 46.21C188.332 46.39 189.302 46.64 190.182 46.96C191.062 47.28 191.752 47.74 192.252 48.34C192.772 48.94 193.032 49.74 193.032 50.74C193.032 52.22 192.482 53.37 191.382 54.19C190.282 55.01 188.802 55.42 186.942 55.42Z" fill="#439A57"/>
</svg>
