<svg width="175" height="144" viewBox="0 0 175 144" fill="none" xmlns="http://www.w3.org/2000/svg">
<path d="M24.8144 143.125L20.7354 137.486L25.208 134.251L8.75119 111.499L4.27855 114.734L0.199505 109.094L14.2008 98.9671C18.7707 95.6617 23.0825 94.32 27.1364 94.9423C31.1992 95.5086 34.8833 98.0768 38.1887 102.647L42.8304 109.064C46.1358 113.634 47.4333 117.953 46.7228 122.021C46.0213 126.034 43.3856 129.693 38.8157 132.998L24.8144 143.125ZM31.4846 129.415L34.6933 127.094C37.2861 125.218 38.6898 123.166 38.9044 120.938C39.119 118.709 38.3355 116.363 36.5538 113.9L31.6308 107.094C29.8257 104.598 27.843 103.12 25.6827 102.658C23.4989 102.164 21.1106 102.855 18.5177 104.731L15.3091 107.051L31.4846 129.415ZM68.8671 112.298C66.4687 114.033 63.9825 115.066 61.4084 115.398C58.8432 115.673 56.3739 115.263 54.0006 114.165C51.6362 113.012 49.5397 111.172 47.7112 108.644L47.2892 108.06C45.4607 105.532 44.3806 102.981 44.0491 100.407C43.6942 97.8006 44.0608 95.3386 45.1491 93.0211C46.2139 90.6711 47.9455 88.6288 50.3438 86.894C52.7098 85.1827 55.1547 84.2288 57.6784 84.0325C60.1788 83.8037 62.5949 84.2776 64.9269 85.4541C67.2355 86.5982 69.2806 88.4019 71.0622 90.865L72.5743 92.9555L55.0241 105.65C56.2845 107.256 57.8731 108.155 59.7901 108.349C61.707 108.542 63.5082 108.029 65.1935 106.81C66.9113 105.567 67.9057 104.28 68.1767 102.949C68.4478 101.617 68.4658 100.346 68.2308 99.1333L75.137 98.1366C75.2928 99.3075 75.2965 100.712 75.1482 102.349C75.0088 103.931 74.4839 105.594 73.5736 107.339C72.6398 109.051 71.071 110.704 68.8671 112.298ZM51.7672 101.045L63.0461 92.8867C61.9084 91.5868 60.5324 90.8789 58.9182 90.7629C57.3364 90.6235 55.7514 91.1282 54.1633 92.2769C52.5104 93.4725 51.5025 94.8432 51.1397 96.3892C50.7769 97.9352 50.9861 99.487 51.7672 101.045ZM92.9037 93.8757C91.3156 95.0244 89.6675 95.4759 87.9595 95.2303C86.2605 94.9289 84.8131 93.9517 83.6176 92.2988L73.7716 78.6864L67.7432 83.0468L64.0862 77.9907L70.1145 73.6304L64.6992 66.1436L70.8248 61.7129L76.2401 69.1997L82.8518 64.4174L86.5089 69.4734L79.8972 74.2557L88.9695 86.7986C89.6728 87.7709 90.4782 87.9288 91.3857 87.2724L96.0528 83.8967L99.7099 88.9527L92.9037 93.8757ZM115.491 78.575C113.092 80.3098 110.606 81.3429 108.032 81.6744C105.467 81.9501 102.997 81.5393 100.624 80.4421C98.2597 79.289 96.1632 77.4484 94.3347 74.9204L93.9127 74.337C92.0842 71.809 91.0042 69.258 90.6726 66.6838C90.3177 64.0773 90.6843 61.6153 91.7726 59.2978C92.8374 56.9478 94.569 54.9055 96.9674 53.1707C99.3333 51.4594 101.778 50.5056 104.302 50.3092C106.802 50.0804 109.218 50.5543 111.55 51.7308C113.859 52.8749 115.904 54.6786 117.686 57.1418L119.198 59.2322L101.648 71.9265C102.908 73.5326 104.497 74.4322 106.414 74.6254C108.331 74.8186 110.132 74.3056 111.817 73.0866C113.535 71.8441 114.529 70.5572 114.8 69.2256C115.071 67.8941 115.089 66.6223 114.854 65.41L121.761 64.4133C121.916 65.5842 121.92 66.9885 121.772 68.6262C121.632 70.208 121.107 71.8712 120.197 73.6157C119.263 75.3278 117.695 76.9809 115.491 78.575ZM98.3908 67.3215L109.67 59.1634C108.532 57.8635 107.156 57.1556 105.542 57.0396C103.96 56.9003 102.375 57.4049 100.787 58.5536C99.1339 59.7492 98.126 61.12 97.7632 62.6659C97.4004 64.2119 97.6096 65.7637 98.3908 67.3215ZM142.917 58.7372C140.584 60.4251 138.109 61.4744 135.493 61.8852C132.91 62.2726 130.4 61.9411 127.962 60.8908C125.523 59.8404 123.355 58.0026 121.456 55.3774L120.964 54.6968C119.065 52.0715 117.998 49.4367 117.764 46.7922C117.53 44.1478 118.001 41.6596 119.177 39.3276C120.386 36.9721 122.157 34.9505 124.491 33.2626C126.792 31.5981 129.062 30.5733 131.301 30.1879C133.54 29.8026 135.678 29.9596 137.714 30.659C139.759 31.3024 141.589 32.3982 143.202 33.9464L138.185 39.5004C137.352 38.6219 136.428 37.9578 135.411 37.5081C134.395 37.0585 133.301 36.9115 132.13 37.0673C130.992 37.1996 129.807 37.7112 128.575 38.602C127.344 39.4929 126.425 40.5771 125.819 41.8548C125.221 43.0767 125.018 44.4334 125.208 45.9249C125.407 47.3605 126.058 48.84 127.16 50.3633L127.511 50.8495C128.613 52.3728 129.826 53.4699 131.151 54.1409C132.484 54.7561 133.837 54.9875 135.207 54.8352C136.587 54.627 137.893 54.0776 139.125 53.1867C140.972 51.8505 142.026 50.3725 142.286 48.7528C142.555 47.0772 142.256 45.3677 141.39 43.6245L148.341 40.7443C149.162 42.7668 149.57 44.8662 149.564 47.0424C149.568 49.1628 149.036 51.2259 147.969 53.2317C146.902 55.2376 145.218 57.0727 142.917 58.7372ZM167.041 40.2517C165.452 41.4004 163.804 41.8519 162.096 41.6063C160.397 41.3049 158.95 40.3277 157.755 38.6748L147.909 25.0624L141.88 29.4228L138.223 24.3667L144.251 20.0064L138.836 12.5196L144.962 8.08887L150.377 15.5757L156.989 10.7933L160.646 15.8494L154.034 20.6317L163.106 33.1745C163.81 34.1468 164.615 34.3048 165.523 33.6484L170.19 30.2726L173.847 35.3287L167.041 40.2517Z" fill="#41403E"/>
</svg>
