<svg width="238" height="47" viewBox="0 0 238 47" fill="none" xmlns="http://www.w3.org/2000/svg">
<path d="M1.30904 45.2139L1.24426 38.2542L6.76402 38.2029L6.50266 10.1241L0.982894 10.1755L0.918112 3.21576L18.1974 3.05492C23.8371 3.00243 28.1303 4.40253 31.077 7.25522C34.0633 10.0675 35.5827 14.2936 35.6352 19.9333L35.7089 27.853C35.7614 33.4928 34.3211 37.7664 31.3881 40.6738C28.4946 43.5408 24.228 45.0006 18.5883 45.0531L1.30904 45.2139ZM14.6814 37.8892L18.6413 37.8523C21.8411 37.8225 24.1732 36.9608 25.6375 35.2671C27.1018 33.5734 27.8198 31.2066 27.7915 28.1667L27.7133 19.7671C27.6847 16.6872 26.9227 14.3342 25.4275 12.708C23.932 11.0419 21.5842 10.2237 18.3844 10.2535L14.4245 10.2904L14.6814 37.8892ZM41.5082 44.8398L41.2312 15.081L48.7909 15.0107L49.0679 44.7694L41.5082 44.8398ZM44.9787 11.566C43.6187 11.5787 42.4547 11.1495 41.4865 10.2785C40.5584 9.40707 40.0876 8.2514 40.0742 6.81146C40.0608 5.37152 40.51 4.20729 41.4218 3.31877C42.3735 2.42987 43.5294 1.97909 44.8893 1.96643C46.2893 1.9534 47.4533 2.38259 48.3815 3.25398C49.3096 4.12538 49.7804 5.28105 49.7938 6.72099C49.8072 8.16093 49.358 9.32516 48.4462 10.2137C47.5345 11.1022 46.3786 11.553 44.9787 11.566ZM68.6124 45.4275C64.7325 45.4636 61.5449 44.6533 59.0493 42.9964C56.5538 41.3396 55.0315 38.9536 54.4825 35.8386L61.4255 33.9739C61.7185 35.3712 62.1887 36.4669 62.8361 37.2609C63.5235 38.0546 64.3489 38.6269 65.3122 38.9779C66.3151 39.2886 67.3966 39.4386 68.5565 39.4278C70.3165 39.4114 71.6136 39.0993 72.448 38.4915C73.282 37.8437 73.6947 37.0598 73.6861 36.1399C73.6776 35.2199 73.2711 34.5237 72.4667 34.0511C71.6618 33.5386 70.378 33.1305 68.6151 32.8269L66.9324 32.5426C64.8487 32.162 62.9438 31.6397 61.2175 30.9757C59.4909 30.2718 58.1019 29.3046 57.0504 28.0744C55.9989 26.8441 55.464 25.249 55.4457 23.2891C55.4182 20.3292 56.4771 18.0593 58.6225 16.4792C60.7675 14.8592 63.5999 14.0328 67.1198 14C70.4396 13.9691 73.2064 14.6834 75.4201 16.1429C77.6338 17.6023 79.0918 19.5288 79.7941 21.9224L72.7945 24.1477C72.4604 22.6307 71.7903 21.5569 70.7844 20.9262C69.8185 20.2952 68.6156 19.9864 67.1756 19.9998C65.7357 20.0132 64.6382 20.2834 63.883 20.8105C63.1275 21.2975 62.7539 21.981 62.7621 22.861C62.771 23.8209 63.1777 24.5372 63.9821 25.0097C64.7862 25.4423 65.8693 25.7722 67.2315 25.9995L68.9142 26.2839C71.1578 26.663 73.1828 27.1842 74.989 27.8474C76.8349 28.4702 78.2836 29.3968 79.3351 30.6271C80.4262 31.817 80.9814 33.4519 81.0008 35.5318C81.0298 38.6516 79.9124 41.0821 77.6485 42.8233C75.4243 44.5241 72.4122 45.3921 68.6124 45.4275ZM100.496 45.1307C97.616 45.1575 94.9905 44.582 92.6194 43.404C90.2884 42.2256 88.4322 40.5028 87.0511 38.2356C85.6699 35.9683 84.9643 33.2148 84.9341 29.9749L84.9263 29.135C84.8961 25.8951 85.5504 23.1289 86.8891 20.8363C88.2278 18.5438 90.0516 16.7867 92.3603 15.5652C94.709 14.3433 97.3233 13.7189 100.203 13.6921C103.043 13.6657 105.488 14.1429 107.537 15.1239C109.586 16.1049 111.239 17.4695 112.495 19.2179C113.791 20.9259 114.649 22.878 115.07 25.0742L107.765 26.7023C107.593 25.5038 107.223 24.4272 106.655 23.4725C106.086 22.5177 105.279 21.7652 104.233 21.2149C103.228 20.6642 101.966 20.396 100.446 20.4101C98.9258 20.4243 97.549 20.7771 96.3154 21.4686C95.1214 22.1198 94.1706 23.1087 93.4629 24.4353C92.7949 25.7216 92.4696 27.3047 92.4871 29.1846L92.4927 29.7846C92.5102 31.6645 92.865 33.2612 93.5573 34.5749C94.2892 35.8481 95.2583 36.8191 96.4645 37.4879C97.7104 38.1164 99.0934 38.4235 100.613 38.4093C102.893 38.3881 104.608 37.7921 105.757 36.6214C106.946 35.4103 107.691 33.8433 107.993 31.9204L115.329 33.5922C114.829 35.7169 113.947 37.6652 112.683 39.437C111.459 41.1685 109.832 42.5437 107.802 43.5627C105.771 44.5816 103.336 45.1043 100.496 45.1307ZM134.631 44.813C131.671 44.8406 129.005 44.2653 126.634 43.0874C124.263 41.9094 122.387 40.1868 121.006 37.9195C119.625 35.6523 118.919 32.9187 118.889 29.7189L118.88 28.7589C118.851 25.559 119.505 22.8128 120.844 20.5203C122.183 18.2277 124.026 16.4705 126.375 15.2486C128.724 14.0266 131.378 13.4019 134.338 13.3744C137.298 13.3468 139.963 13.922 142.334 15.1C144.705 16.278 146.582 18.0006 147.963 20.2678C149.344 22.5351 150.049 25.2686 150.079 28.4685L150.088 29.4285C150.118 32.6283 149.463 35.3745 148.125 37.6671C146.786 39.9597 144.942 41.7169 142.594 42.9388C140.245 44.1607 137.59 44.7855 134.631 44.813ZM134.568 38.0933C136.888 38.0717 138.801 37.3139 140.307 35.8198C141.813 34.2857 142.553 32.1187 142.527 29.3188L142.521 28.7189C142.495 25.919 141.715 23.7861 140.181 22.3204C138.687 20.8142 136.76 20.0721 134.401 20.0941C132.081 20.1157 130.168 20.8935 128.662 22.4276C127.156 23.9217 126.416 26.0687 126.442 28.8685L126.447 29.4685C126.473 32.2684 127.254 34.4212 128.788 35.927C130.321 37.3928 132.248 38.1149 134.568 38.0933ZM161.361 43.7242L151.604 14.0537L159.644 13.9788L166.769 38.1536L167.849 38.1435L174.523 13.8403L182.563 13.7655L173.36 43.6125L161.361 43.7242ZM199.479 44.2094C196.519 44.2369 193.894 43.6413 191.602 42.4226C189.351 41.1635 187.574 39.4 186.273 37.132C185.011 34.8236 184.366 32.1095 184.337 28.9897L184.33 28.2697C184.301 25.1498 184.896 22.4442 186.115 20.1527C187.333 17.8213 189.057 16.0252 191.285 14.7644C193.513 13.4636 196.107 12.7994 199.067 12.7719C201.987 12.7447 204.533 13.381 206.705 14.6808C208.877 15.9407 210.573 17.725 211.795 20.0337C213.016 22.3024 213.641 24.9567 213.669 27.9966L213.693 30.5765L192.034 30.7781C192.133 32.8173 192.908 34.4701 194.36 35.7367C195.812 37.0032 197.578 37.6268 199.658 37.6074C201.778 37.5877 203.333 37.1132 204.325 36.1839C205.316 35.2547 206.067 34.2276 206.576 33.1028L212.786 36.2852C212.236 37.3303 211.427 38.4779 210.358 39.7279C209.329 40.9376 207.939 41.9905 206.187 42.8869C204.435 43.7432 202.199 44.1841 199.479 44.2094ZM192.042 25.1378L205.961 25.0082C205.785 23.2898 205.072 21.9164 203.822 20.8879C202.613 19.8592 201.028 19.3539 199.068 19.3721C197.028 19.3911 195.413 19.9262 194.223 20.9773C193.033 22.0284 192.306 23.4153 192.042 25.1378ZM219.34 43.1845L219.063 13.4258L226.502 13.3565L226.534 16.7164L227.614 16.7063C228.042 15.5023 228.754 14.6156 229.749 14.0463C230.784 13.4767 231.981 13.1855 233.341 13.1729L236.941 13.1394L237.003 19.8591L233.283 19.8937C231.363 19.9116 229.788 20.4462 228.558 21.4977C227.328 22.5092 226.722 24.0749 226.742 26.1948L226.899 43.1141L219.34 43.1845Z" fill="#41403E"/>
</svg>
