<svg width="241" height="115" viewBox="0 0 241 115" fill="none" xmlns="http://www.w3.org/2000/svg">
<path d="M0.298798 40.363L13.2029 0.394413L38.326 8.50554L36.1138 15.3573L18.5277 9.6795L15.4123 19.3291L31.6281 24.5644L29.4159 31.4162L13.2001 26.1808L7.83573 42.7963L0.298798 40.363ZM42.8798 54.9932C40.0629 54.0837 37.7159 52.6955 35.8388 50.8285C33.9616 48.9614 32.7262 46.7341 32.1325 44.1465C31.5388 41.559 31.7335 38.7426 32.7166 35.6973L33.0116 34.7838C33.9948 31.7386 35.4837 29.34 37.4784 27.5881C39.4732 25.8363 41.7778 24.7519 44.3923 24.335C47.0069 23.9181 49.7226 24.1644 52.5394 25.0738C55.3562 25.9833 57.7032 27.3715 59.5804 29.2386C61.4576 31.1056 62.693 33.3329 63.2867 35.9205C63.8804 38.508 63.6857 41.3244 62.7025 44.3697L62.4076 45.2832C61.4244 48.3284 59.9355 50.727 57.9407 52.4789C55.946 54.2307 53.6414 55.3151 51.0268 55.732C48.4123 56.1489 45.6966 55.9026 42.8798 54.9932ZM44.9444 48.5982C47.1522 49.311 49.2067 49.1967 51.1079 48.2553C53.0214 47.2758 54.4083 45.4538 55.2685 42.7892L55.4529 42.2182C56.3132 39.5536 56.2474 37.2837 55.2556 35.4082C54.3142 33.507 52.7206 32.1939 50.4747 31.4688C48.267 30.756 46.2063 30.8894 44.2928 31.8688C42.3916 32.8102 41.0109 34.6132 40.1506 37.2778L39.9663 37.8488C39.106 40.5134 39.1656 42.8024 40.1451 44.7159C41.1369 46.5913 42.7366 47.8854 44.9444 48.5982ZM63.4821 60.762L72.6256 32.4415L79.7057 34.7273L78.6734 37.9248L79.7012 38.2566C80.4886 37.2499 81.4441 36.6336 82.5678 36.408C83.7295 36.1946 84.9575 36.2968 86.2517 36.7147L89.6776 37.8207L87.613 44.2157L84.0729 43.0728C82.2458 42.4829 80.5824 42.4923 79.0829 43.101C77.5956 43.6716 76.5263 44.9657 75.875 46.9832L70.6765 63.0848L63.4821 60.762ZM96.621 72.3438C93.8041 71.4344 91.5014 70.0394 89.7126 68.1589C87.9742 66.2526 86.8462 64.0179 86.3287 61.4549C85.8614 58.8662 86.1071 56.0872 87.0657 53.1181L87.2869 52.433C88.2455 49.4639 89.6651 47.0849 91.5456 45.2962C93.4384 43.4694 95.6411 42.3101 98.1538 41.8183C100.679 41.2884 103.35 41.4782 106.166 42.3876C108.945 43.2848 111.16 44.6932 112.81 46.613C114.472 48.4947 115.517 50.7238 115.947 53.3003C116.388 55.8387 116.142 58.5544 115.208 61.4474L114.415 63.9026L93.8028 57.2478C93.2521 59.2137 93.4654 61.0269 94.4424 62.6874C95.4195 64.3479 96.8978 65.4977 98.8772 66.1368C100.895 66.7881 102.52 66.8297 103.755 66.2614C104.989 65.6931 106.026 64.956 106.865 64.0499L111.75 69.0319C110.898 69.8496 109.767 70.6825 108.359 71.5307C107 72.3531 105.348 72.9127 103.403 73.2094C101.47 73.468 99.2094 73.1795 96.621 72.3438ZM95.5927 51.899L108.839 56.1758C109.216 54.4898 108.973 52.9615 108.113 51.5908C107.291 50.2324 105.947 49.2521 104.082 48.65C102.14 48.0232 100.439 48.0203 98.9773 48.6413C97.5158 49.2623 96.3876 50.3482 95.5927 51.899ZM128.833 82.7435C126.092 81.8587 123.783 80.4827 121.906 78.6157C120.067 76.7609 118.85 74.5398 118.257 71.9522C117.663 69.3646 117.864 66.5292 118.859 63.4459L119.117 62.6465C120.113 59.5633 121.608 57.1457 123.603 55.3938C125.597 53.6419 127.883 52.5514 130.459 52.1222C133.074 51.7054 135.752 51.9394 138.492 52.8242C141.195 53.6968 143.363 54.9222 144.997 56.5006C146.631 58.079 147.768 59.8962 148.407 61.952C149.097 63.9821 149.294 66.1054 148.999 68.3219L141.554 67.5574C141.77 66.3663 141.759 65.2279 141.521 64.1423C141.283 63.0567 140.756 62.0877 139.938 61.2352C139.158 60.3951 138.045 59.7415 136.599 59.2745C135.152 58.8075 133.735 58.707 132.346 58.9732C131.007 59.2135 129.793 59.8512 128.702 60.8861C127.661 61.8953 126.852 63.2944 126.275 65.0835L126.09 65.6544C125.513 67.4435 125.345 69.0706 125.586 70.5357C125.878 71.975 126.491 73.2025 127.424 74.2183C128.407 75.2083 129.622 75.9369 131.069 76.4039C133.238 77.1044 135.053 77.0809 136.514 76.3334C138.024 75.5601 139.227 74.3091 140.121 72.5802L146.553 76.4851C145.406 78.3428 143.954 79.9124 142.195 81.194C140.487 82.4499 138.508 83.2402 136.259 83.5651C134.011 83.8899 131.535 83.6161 128.833 82.7435ZM156.636 91.7199C154.618 91.0686 152.921 90.1422 151.543 88.9409C150.178 87.7015 149.235 86.262 148.713 84.6225C148.242 82.9572 148.32 81.1539 148.947 79.2125C149.573 77.2712 150.553 75.8009 151.884 74.8016C153.266 73.7766 154.879 73.2047 156.725 73.0861C158.621 72.9417 160.635 73.2135 162.767 73.9018L170.532 76.4088L171.048 74.8101C171.478 73.4778 171.41 72.2578 170.843 71.15C170.288 70.0041 169.097 69.1362 167.27 68.5463C165.481 67.9687 164.013 67.9573 162.868 68.5121C161.734 69.0288 160.825 69.8912 160.141 71.0994L154.236 66.7342C155.16 65.4352 156.307 64.3554 157.678 63.4949C159.099 62.6087 160.764 62.0743 162.672 61.8918C164.631 61.6835 166.828 61.9726 169.265 62.7592C172.995 63.9636 175.644 65.8486 177.211 68.4143C178.779 70.98 178.991 74.0329 177.848 77.573L174.438 88.1361C174.069 89.2781 174.418 90.0211 175.484 90.3652L177.768 91.1026L175.85 97.0408L171.054 95.4923C169.646 95.0376 168.595 94.3201 167.903 93.34C167.211 92.3599 167.049 91.2988 167.418 90.1569L167.436 90.0998L166.351 89.7495C166.051 90.1572 165.512 90.6556 164.733 91.2448C163.967 91.796 162.921 92.1728 161.594 92.3751C160.268 92.5774 158.615 92.359 156.636 91.7199ZM159.772 86.3015C161.79 86.9528 163.605 86.9293 165.217 86.231C166.88 85.5069 168.013 84.2122 168.615 82.347L168.799 81.776L161.548 79.4349C160.216 79.0047 159.077 78.9523 158.131 79.2775C157.185 79.6026 156.547 80.2791 156.215 81.3069C155.883 82.3346 156.012 83.3011 156.603 84.2063C157.193 85.1115 158.25 85.8099 159.772 86.3015ZM191.25 102.895C187.557 101.703 184.789 99.9267 182.945 97.566C181.101 95.2053 180.411 92.4605 180.875 89.3317L188.051 89.7571C187.888 91.1754 187.988 92.3636 188.351 93.3215C188.752 94.2917 189.354 95.0956 190.157 95.7331C191.011 96.3449 191.989 96.829 193.093 97.1854C194.768 97.7261 196.097 97.84 197.081 97.5271C198.077 97.1762 198.716 96.563 198.999 95.6875C199.282 94.8119 199.116 94.0229 198.502 93.3203C197.901 92.5797 196.812 91.7867 195.235 90.9415L193.728 90.1398C191.872 89.1201 190.23 88.0225 188.802 86.8469C187.386 85.6333 186.374 84.2767 185.765 82.7771C185.157 81.2776 185.153 79.5952 185.756 77.73C186.665 74.9132 188.387 73.0943 190.922 72.2734C193.469 71.4144 196.418 71.5257 199.767 72.6072C202.927 73.6272 205.326 75.1794 206.965 77.2637C208.604 79.3481 209.378 81.6367 209.288 84.1295L201.944 84.0282C202.106 82.4834 201.81 81.2529 201.055 80.3366C200.338 79.4326 199.294 78.7594 197.924 78.317C196.554 77.8745 195.427 77.784 194.544 78.0453C193.673 78.2686 193.103 78.799 192.832 79.6364C192.537 80.55 192.697 81.3581 193.311 82.0606C193.937 82.7251 194.86 83.3805 196.08 84.0268L197.587 84.8284C199.596 85.8973 201.352 87.0318 202.856 88.2319C204.411 89.4063 205.492 90.7433 206.101 92.2428C206.76 93.7166 206.77 95.4432 206.131 97.4226C205.172 100.392 203.344 102.344 200.646 103.281C197.998 104.191 194.866 104.063 191.25 102.895ZM218.838 110.919C216.972 110.317 215.634 109.255 214.823 107.732C214.062 106.183 213.995 104.438 214.621 102.497L219.783 86.5092L212.703 84.2234L214.62 78.2852L221.7 80.571L224.539 71.778L231.733 74.1007L228.895 82.8938L236.66 85.4008L234.743 91.339L226.977 88.832L222.221 103.563C221.853 104.705 222.201 105.448 223.267 105.792L228.748 107.562L226.831 113.5L218.838 110.919Z" fill="#41403E"/>
</svg>
