<svg width="248" height="131" viewBox="0 0 248 131" fill="none" xmlns="http://www.w3.org/2000/svg">
<path d="M14.7668 46.4239C12.0813 45.3835 9.86949 43.8401 8.13132 41.794C6.44491 39.725 5.39696 37.2813 4.98749 34.463C4.62976 31.6219 5.1012 28.5229 6.4018 25.1661L10.0435 15.7669C11.9944 10.7316 14.9074 7.42037 18.7826 5.83317C22.6722 4.20867 27.0414 4.33575 31.8901 6.21439C36.7016 8.07858 39.9142 10.8033 41.528 14.3884C43.1935 17.9507 43.1809 21.9138 41.4901 26.2778L41.4034 26.5015L34.1302 23.6836L34.3036 23.236C34.8383 21.856 35.024 20.4909 34.8608 19.1407C34.7349 17.805 34.2166 16.5961 33.306 15.514C32.4099 14.3947 31.0853 13.4954 29.3323 12.8162C26.7214 11.8046 24.3593 11.8117 22.246 12.8375C20.1326 13.8633 18.5413 15.7562 17.4719 18.5163L13.7435 28.1393C12.6886 30.862 12.5819 33.3517 13.4236 35.6081C14.2797 37.8273 16.0504 39.4571 18.7359 40.4976C21.4214 41.5381 23.6541 41.5881 25.4341 40.6477C27.2141 39.7072 28.5232 38.1553 29.3613 35.992L29.5781 35.4326L20.2908 31.8342L22.7186 25.5681L39.2791 31.9844L31.5188 52.0136L24.6932 49.3691L26.1456 45.6206L25.1385 45.2304C24.6318 45.7633 23.9427 46.2685 23.0714 46.7459C22.2373 47.2378 21.1482 47.5022 19.8041 47.5391C18.46 47.576 16.7809 47.2043 14.7668 46.4239ZM50.0198 60.0826C47.2598 59.0132 45.0407 57.4885 43.3627 55.5086C41.7364 53.5058 40.7384 51.2101 40.3685 48.6217C40.0504 46.0104 40.455 43.2501 41.5822 40.3409L41.8423 39.6695C42.9695 36.7602 44.5231 34.4666 46.503 32.7886C48.4974 31.0732 50.763 30.0421 53.2997 29.6951C55.8508 29.3108 58.5064 29.6534 61.2665 30.7227C63.9893 31.7777 66.1193 33.3107 67.6565 35.322C69.2082 37.2959 70.1244 39.5812 70.4052 42.1781C70.7004 44.7376 70.2989 47.4347 69.2006 50.2694L68.2685 52.6751L48.0715 44.8499C47.4091 46.781 47.518 48.6034 48.3983 50.3172C49.2786 52.031 50.6885 53.2636 52.6281 54.0151C54.6049 54.781 56.2257 54.9156 57.4905 54.4191C58.7554 53.9225 59.8325 53.2459 60.722 52.3895L65.3141 57.6433C64.4162 58.4108 63.2397 59.1775 61.7847 59.9436C60.3814 60.6868 58.7002 61.1508 56.7412 61.3355C54.7966 61.4829 52.5561 61.0653 50.0198 60.0826ZM50.165 39.6125L63.1449 44.6414C63.6171 42.9798 63.4629 41.4401 62.6824 40.0224C61.9392 38.6191 60.6537 37.5634 58.8261 36.8553C56.9239 36.1183 55.2255 36.0179 53.7308 36.5541C52.2361 37.0903 51.0475 38.1098 50.165 39.6125ZM68.8502 66.4775L79.6019 38.7276L86.5393 41.4155L85.1304 45.052L86.1374 45.4422C86.9607 44.6459 88.154 44.0572 89.7172 43.6762C91.2949 43.258 93.3332 43.533 95.8322 44.5012C97.9955 45.3393 99.684 46.5726 100.898 48.2011C102.163 49.8067 102.904 51.6594 103.12 53.7593C103.35 55.8218 103.017 58.0094 102.121 60.3218L95.705 76.8823L88.6557 74.1511L94.8552 58.1501C95.6644 56.0614 95.7492 54.2925 95.1095 52.8435C94.5071 51.409 93.2547 50.3232 91.3525 49.5862C89.1892 48.7481 87.229 48.8251 85.4719 49.8173C83.7292 50.7722 82.3593 52.5364 81.3621 55.11L75.8996 69.2088L68.8502 66.4775ZM114.547 85.0836C111.787 84.0142 109.568 82.4895 107.89 80.5095C106.264 78.5067 105.266 76.2111 104.896 73.6227C104.578 71.0114 104.983 68.2511 106.11 65.3418L106.37 64.6705C107.497 61.7612 109.051 59.4676 111.031 57.7895C113.025 56.0742 115.291 55.0431 117.827 54.6961C120.378 54.3118 123.034 54.6543 125.794 55.7237C128.517 56.7786 130.647 58.3117 132.184 60.3229C133.736 62.2968 134.652 64.5822 134.933 67.179C135.228 69.7386 134.826 72.4357 133.728 75.2704L132.796 77.6761L112.599 69.8508C111.937 71.7819 112.046 73.6044 112.926 75.3182C113.806 77.032 115.216 78.2646 117.156 79.016C119.132 79.782 120.753 79.9166 122.018 79.42C123.283 78.9234 124.36 78.2469 125.25 77.3904L129.842 82.6443C128.944 83.4117 127.767 84.1785 126.312 84.9445C124.909 85.6878 123.228 86.1517 121.269 86.3364C119.324 86.4839 117.084 86.0662 114.547 85.0836ZM114.693 64.6134L127.672 69.6424C128.145 67.9808 127.99 66.4411 127.21 65.0234C126.467 63.6201 125.181 62.5644 123.354 61.8563C121.451 61.1193 119.753 61.0189 118.258 61.5551C116.764 62.0913 115.575 63.1108 114.693 64.6134ZM133.378 91.4785L144.129 63.7285L151.067 66.4164L149.853 69.5495L150.86 69.9397C151.704 68.9797 152.693 68.4192 153.828 68.2583C155 68.1119 156.22 68.2843 157.488 68.7757L160.845 70.0763L158.417 76.3424L154.949 74.9984C153.158 74.3048 151.497 74.2188 149.965 74.7406C148.448 75.2251 147.306 76.4557 146.54 78.4325L140.427 94.2097L133.378 91.4785ZM162.098 103.507C160.121 102.741 158.48 101.719 157.173 100.441C155.881 99.1249 155.022 97.6337 154.595 95.967C154.22 94.2774 154.401 92.4816 155.138 90.5793C155.875 88.6771 156.937 87.2654 158.324 86.344C159.762 85.3999 161.406 84.9215 163.255 84.9088C165.156 84.8733 167.151 85.2601 169.24 86.0694L176.849 89.0174L177.456 87.4509C177.962 86.1454 177.963 84.9235 177.461 83.785C176.972 82.6092 175.833 81.6745 174.043 80.9808C172.29 80.3016 170.825 80.2061 169.65 80.6943C168.488 81.1452 167.531 81.9541 166.779 83.1211L161.135 78.4247C162.131 77.1808 163.338 76.1685 164.756 75.388C166.226 74.5847 167.918 74.1466 169.834 74.0737C171.801 73.9781 173.979 74.3927 176.366 75.3175C180.021 76.7338 182.558 78.7675 183.976 81.4189C185.393 84.0702 185.43 87.1302 184.086 90.599L180.076 100.949C179.643 102.068 179.948 102.83 180.992 103.235L183.23 104.102L180.976 109.92L176.276 108.099C174.896 107.565 173.889 106.788 173.254 105.77C172.619 104.752 172.518 103.683 172.952 102.564L172.973 102.508L171.91 102.097C171.588 102.486 171.021 102.953 170.21 103.497C169.413 104.003 168.347 104.319 167.011 104.445C165.675 104.571 164.037 104.258 162.098 103.507ZM165.54 98.2771C167.517 99.043 169.33 99.1236 170.98 98.5188C172.682 97.8912 173.887 96.6636 174.595 94.836L174.811 94.2765L167.706 91.5235C166.401 91.0178 165.267 90.9001 164.304 91.1705C163.341 91.441 162.665 92.0798 162.274 93.0868C161.884 94.0939 161.958 95.0662 162.496 96.0037C163.033 96.9413 164.048 97.699 165.54 98.2771ZM193.62 114.819C191.792 114.111 190.517 112.973 189.794 111.406C189.123 109.817 189.156 108.071 189.893 106.168L195.963 90.5031L189.025 87.8152L191.28 81.9967L198.217 84.6846L201.555 76.0687L208.605 78.7999L205.267 87.4159L212.875 90.3639L210.621 96.1824L203.012 93.2344L197.42 107.669C196.986 108.788 197.291 109.55 198.336 109.954L203.707 112.035L201.452 117.854L193.62 114.819ZM218.743 125.454C215.983 124.384 213.764 122.86 212.086 120.88C210.46 118.877 209.462 116.581 209.092 113.993C208.774 111.382 209.178 108.621 210.305 105.712L210.566 105.041C211.693 102.131 213.246 99.8378 215.226 98.1598C217.221 96.4444 219.486 95.4133 222.023 95.0663C224.574 94.682 227.23 95.0246 229.99 96.0939C232.713 97.1489 234.843 98.6819 236.38 100.693C237.931 102.667 238.848 104.952 239.128 107.549C239.424 110.109 239.022 112.806 237.924 115.641L236.992 118.046L216.795 110.221C216.132 112.152 216.241 113.975 217.122 115.688C218.002 117.402 219.412 118.635 221.351 119.386C223.328 120.152 224.949 120.287 226.214 119.79C227.479 119.294 228.556 118.617 229.445 117.761L234.037 123.015C233.139 123.782 231.963 124.549 230.508 125.315C229.105 126.058 227.423 126.522 225.464 126.707C223.52 126.854 221.279 126.436 218.743 125.454ZM218.888 104.984L231.868 110.013C232.34 108.351 232.186 106.811 231.406 105.394C230.662 103.99 229.377 102.935 227.549 102.226C225.647 101.489 223.949 101.389 222.454 101.925C220.959 102.462 219.771 103.481 218.888 104.984Z" fill="#41403E"/>
</svg>
