<svg width="88" height="58" viewBox="0 0 88 58" fill="none" xmlns="http://www.w3.org/2000/svg">
<path d="M0.44 56L15.16 -3.8147e-06H33.56L48.28 56H37.4L34.36 43.68H14.36L11.32 56H0.44ZM16.84 33.92H31.88L25.08 6.64H23.64L16.84 33.92ZM53.3831 56V-3.8147e-06H63.9431V56H53.3831ZM79.5169 57.12C77.3835 57.12 75.5702 56.4267 74.0769 55.04C72.6369 53.6 71.9169 51.76 71.9169 49.52C71.9169 47.28 72.6369 45.4667 74.0769 44.08C75.5702 42.64 77.3835 41.92 79.5169 41.92C81.7035 41.92 83.5169 42.64 84.9569 44.08C86.3969 45.4667 87.1169 47.28 87.1169 49.52C87.1169 51.76 86.3969 53.6 84.9569 55.04C83.5169 56.4267 81.7035 57.12 79.5169 57.12Z" fill="#41403E"/>
</svg>
