<svg width="249" height="134" viewBox="0 0 249 134" fill="none" xmlns="http://www.w3.org/2000/svg">
<path d="M30.7107 117.634C25.8075 119.366 21.4431 119.38 17.6175 117.677C13.7787 115.936 10.9601 112.52 9.16178 107.428L5.80497 97.9234C4.00669 92.8316 4.06124 88.4217 5.96863 84.6937C7.86271 80.928 11.2613 78.1794 16.1645 76.4477C21.03 74.7293 25.2557 74.7429 28.8417 76.4883C32.452 78.1827 35.0764 81.3495 36.7148 85.9887L36.8347 86.3281L29.4799 88.9257L29.2801 88.3599C28.4542 86.0215 27.1148 84.331 25.2619 83.2886C23.4467 82.2328 21.2002 82.1778 18.5223 83.1236C15.8821 84.056 14.0941 85.5995 13.1582 87.7542C12.2223 89.9088 12.2472 92.3817 13.2329 95.1727L16.6697 104.904C17.6421 107.657 19.1757 109.597 21.2705 110.724C23.3519 111.813 25.7127 111.891 28.3529 110.959C31.0308 110.013 32.7445 108.559 33.4941 106.598C34.268 104.585 34.2487 102.428 33.4362 100.128L33.0765 99.1092L40.4313 96.5117L40.711 97.3037C42.3495 101.943 42.3026 106.074 40.5705 109.698C38.8628 113.271 35.5761 115.916 30.7107 117.634ZM64.5175 105.695C61.7264 106.68 59.0185 107.001 56.3936 106.655C53.7686 106.309 51.4354 105.288 49.3937 103.591C47.3521 101.894 45.7984 99.537 44.7328 96.5197L44.4131 95.6145C43.3474 92.5971 43.0761 89.7871 43.5992 87.1843C44.1223 84.5816 45.2967 82.3215 47.1224 80.404C48.9481 78.4866 51.2564 77.035 54.0475 76.0493C56.8385 75.0636 59.5465 74.7435 62.1714 75.0891C64.7963 75.4347 67.1296 76.456 69.1712 78.1529C71.2129 79.8499 72.7665 82.207 73.8322 85.2244L74.1519 86.1296C75.2175 89.1469 75.4888 91.957 74.9657 94.5597C74.4426 97.1625 73.2682 99.4226 71.4426 101.34C69.6169 103.257 67.3085 104.709 64.5175 105.695ZM62.2796 99.3583C64.4672 98.5857 66.0312 97.2486 66.9716 95.3469C67.8986 93.4074 67.8959 91.1176 66.9635 88.4775L66.7637 87.9117C65.8312 85.2715 64.4019 83.5068 62.4758 82.6174C60.5741 81.6771 58.5106 81.5998 56.2853 82.3857C54.0978 83.1583 52.5404 84.5143 51.6134 86.4538C50.673 88.3555 50.669 90.6264 51.6015 93.2666L51.8013 93.8324C52.7337 96.4725 54.1697 98.2562 56.1091 99.1832C58.0352 100.073 60.092 100.131 62.2796 99.3583ZM84.3958 97.7834L74.4852 69.7221L81.5006 67.2444L82.5795 70.2995L83.5979 69.9398C83.7552 68.8237 84.2797 67.7264 85.1714 66.6479C86.0499 65.5317 87.4131 64.6472 89.2613 63.9945C91.2602 63.2885 93.0031 63.1184 94.4898 63.4842C95.9631 63.8122 97.2402 64.4854 98.3209 65.5036L99.3393 65.1439C99.5542 63.7105 100.106 62.3914 100.996 61.1864C101.885 59.9814 103.405 58.9992 105.555 58.24C107.29 57.6272 108.988 57.4516 110.65 57.713C112.337 57.9235 113.861 58.6365 115.224 59.8521C116.611 61.0167 117.704 62.7305 118.503 64.9935L125.017 83.4371L117.888 85.9547L111.554 68.0203C111.008 66.4739 110.206 65.4634 109.147 64.9888C108.076 64.4765 106.823 64.4734 105.39 64.9796C103.768 65.5524 102.691 66.5267 102.159 67.9024C101.651 69.2272 101.737 70.8513 102.416 72.7749L108.271 89.3514L101.142 91.869L94.8081 73.9347C94.262 72.3883 93.4597 71.3778 92.4012 70.9032C91.3294 70.3908 90.0769 70.3878 88.6436 70.894C87.0218 71.4668 85.9448 72.441 85.4126 73.8168C84.9047 75.1415 84.9905 76.7657 85.6699 78.6892L91.5243 95.2658L84.3958 97.7834ZM135.548 92.444L121.642 53.0676L128.657 50.59L129.856 53.9845L130.874 53.6248C131.129 52.3046 131.789 50.9898 132.854 49.6805C133.905 48.3335 135.694 47.2137 138.221 46.3212C140.484 45.522 142.777 45.3484 145.101 45.8006C147.41 46.215 149.53 47.2907 151.458 49.0276C153.387 50.7645 154.89 53.1605 155.969 56.2156L156.289 57.1208C157.368 60.1759 157.703 62.9848 157.293 65.5476C156.883 68.1104 155.916 70.2972 154.392 72.1081C152.854 73.8812 150.954 75.1674 148.691 75.9667C146.994 76.5661 145.488 76.8648 144.172 76.8629C142.907 76.8853 141.81 76.7214 140.88 76.371C139.975 75.9696 139.201 75.5215 138.56 75.0269L137.542 75.3865L142.677 89.9264L135.548 92.444ZM144.344 70.5027C146.569 69.7167 148.152 68.3729 149.092 66.4712C150.057 64.5185 150.06 62.1843 149.101 59.4687L148.901 58.9029C147.942 56.1873 146.48 54.3915 144.516 53.5155C142.539 52.6018 140.457 52.5312 138.269 53.3038C136.082 54.0764 134.506 55.439 133.541 57.3918C132.563 59.3068 132.553 61.6221 133.512 64.3378L133.712 64.9035C134.671 67.6191 136.139 69.4338 138.116 70.3475C140.08 71.2235 142.156 71.2753 144.344 70.5027ZM175.491 66.5018C173.492 67.2078 171.58 67.501 169.756 67.3816C167.919 67.2245 166.296 66.6523 164.887 65.6653C163.502 64.6272 162.47 63.1463 161.791 61.2228C161.111 59.2992 160.998 57.5364 161.45 55.9343C161.927 54.2812 162.863 52.8477 164.258 51.6337C165.678 50.3687 167.444 49.3632 169.556 48.6173L177.25 45.8998L176.691 44.3157C176.225 42.9956 175.43 42.0672 174.307 41.5305C173.171 40.9561 171.698 40.9886 169.888 41.628C168.115 42.254 166.941 43.1351 166.367 44.2713C165.779 45.3697 165.58 46.6067 165.769 47.9824L158.427 48.0937C158.373 46.5006 158.63 44.9463 159.198 43.4307C159.79 41.8641 160.789 40.4295 162.196 39.1268C163.626 37.773 165.549 36.6698 167.963 35.8173C171.659 34.5119 174.908 34.4036 177.711 35.4925C180.513 36.5813 182.534 38.8796 183.773 42.3872L187.469 52.8537C187.869 53.9852 188.597 54.3644 189.653 53.9915L191.916 53.1922L193.994 59.076L189.242 60.7544C187.846 61.2473 186.576 61.3141 185.431 60.9549C184.286 60.5957 183.514 59.8504 183.114 58.7189L183.094 58.6623L182.019 59.0419C182.028 59.5478 181.902 60.2712 181.64 61.212C181.365 62.1151 180.762 63.0493 179.83 64.0147C178.899 64.9801 177.452 65.8091 175.491 66.5018ZM174.697 60.2915C176.696 59.5855 178.125 58.4658 178.983 56.9325C179.866 55.3481 179.981 53.6318 179.328 51.7837L179.129 51.2179L171.944 53.7555C170.623 54.2217 169.686 54.8709 169.132 55.7031C168.577 56.5352 168.48 57.4605 168.839 58.4789C169.199 59.4972 169.888 60.1871 170.907 60.5486C171.925 60.91 173.189 60.8243 174.697 60.2915ZM198.075 57.6349L188.164 29.5736L195.179 27.0959L196.298 30.2642L197.317 29.9045C197.332 28.6265 197.718 27.5569 198.474 26.6959C199.268 25.8215 200.307 25.1579 201.589 24.705L204.983 23.5061L207.221 29.8425L203.714 31.0814C201.903 31.7207 200.587 32.7372 199.764 34.1308C198.927 35.4867 198.862 37.1641 199.568 39.1631L205.203 55.1173L198.075 57.6349ZM231.445 46.74C228.654 47.7257 225.978 48.0136 223.415 47.6036C220.876 47.1427 218.624 46.0504 216.658 44.3268C214.716 42.5521 213.226 40.1939 212.187 37.2519L211.947 36.573C210.908 33.6311 210.593 30.8788 211.003 28.316C211.4 25.7155 212.448 23.4576 214.147 21.5424C215.833 19.5895 218.071 18.1202 220.862 17.1345C223.616 16.1621 226.23 15.9386 228.707 16.4639C231.17 16.9515 233.353 18.0893 235.257 19.8773C237.148 21.6275 238.6 23.9359 239.612 26.8024L240.471 29.2351L220.048 36.4482C220.802 38.3451 222.072 39.6573 223.856 40.3847C225.64 41.1121 227.513 41.1294 229.474 40.4368C231.473 39.7308 232.791 38.7775 233.427 37.577C234.064 36.3765 234.441 35.1616 234.558 33.9324L241.464 34.9294C241.283 36.0966 240.889 37.4446 240.284 38.9734C239.703 40.4513 238.729 41.8981 237.362 43.314C235.983 44.6922 234.01 45.8342 231.445 46.74ZM218.226 31.1102L231.351 26.4746C230.628 24.906 229.508 23.8379 227.993 23.2702C226.515 22.6892 224.852 22.725 223.004 23.3778C221.08 24.0571 219.726 25.0869 218.941 26.4672C218.155 27.8474 217.917 29.3951 218.226 31.1102Z" fill="#41403E"/>
</svg>
