<svg width="223" height="109" viewBox="0 0 223 109" fill="none" xmlns="http://www.w3.org/2000/svg">
<path d="M3.50743 41.9971L14.2586 1.39649L21.9147 3.42386L11.1636 44.0245L3.50743 41.9971ZM29.2578 49.6849C26.9764 49.0808 24.9789 47.9518 23.2651 46.298C21.6002 44.6158 20.4603 42.514 19.8452 39.9925C19.2302 37.4711 19.3373 34.6443 20.1667 31.5123L20.4125 30.5842C21.2418 27.4522 22.5477 24.9429 24.33 23.0562C26.1123 21.1696 28.138 19.9267 30.4069 19.3276C32.6862 18.6898 34.9858 18.678 37.3058 19.2924C39.0458 19.7531 40.4396 20.3498 41.4869 21.0823C42.5832 21.7864 43.4168 22.5451 43.9877 23.3583C44.5585 24.1715 44.9451 24.9773 45.1475 25.7757L46.1915 26.0522L50.2002 10.9139L57.5083 12.8491L46.7571 53.4498L39.565 51.5453L40.4865 48.0652L39.4425 47.7888C38.4984 48.6974 37.2127 49.4121 35.5851 49.9328C33.9963 50.4638 31.8872 50.3811 29.2578 49.6849ZM33.1513 43.8884C35.394 44.4823 37.4588 44.2635 39.3457 43.2322C41.2428 42.1621 42.5599 40.2351 43.2972 37.4511L43.4508 36.8711C44.188 34.087 43.992 31.78 42.8628 29.95C41.7826 28.0915 40.1017 26.8602 37.8204 26.2561C35.5777 25.6622 33.5078 25.9003 31.6107 26.9704C29.7238 28.0017 28.4117 29.9094 27.6745 32.6935L27.5209 33.2735C26.7837 36.0575 26.9745 38.3839 28.0935 40.2526C29.2227 42.0826 30.9086 43.2945 33.1513 43.8884ZM66.5927 59.5713C63.7313 58.8136 61.3573 57.5436 59.4707 55.7612C57.633 53.9505 56.3873 51.7793 55.7336 49.2476C55.1287 46.6875 55.2257 43.8994 56.0243 40.8833L56.2086 40.1873C57.0073 37.1713 58.2978 34.7199 60.0801 32.8333C61.8727 30.908 64.0103 29.6327 66.4931 29.0075C68.9862 28.3435 71.6634 28.3904 74.5247 29.1481C77.3474 29.8955 79.6339 31.1837 81.384 33.0127C83.1444 34.803 84.3076 36.973 84.8738 39.5229C85.4502 42.0341 85.3493 44.7591 84.5711 47.6978L83.9107 50.1918L62.9723 44.6473C62.5275 46.6398 62.8372 48.439 63.9016 50.045C64.9659 51.651 66.5035 52.7202 68.5142 53.2526C70.5635 53.7953 72.1893 53.7499 73.3915 53.1166C74.5937 52.4832 75.5895 51.6917 76.3788 50.7422L81.5236 55.4562C80.716 56.3182 79.6315 57.2103 78.2701 58.1325C76.9575 59.0263 75.338 59.6733 73.4113 60.0734C71.495 60.4349 69.2221 60.2675 66.5927 59.5713ZM64.4741 39.2106L77.9303 42.7738C78.2159 41.0702 77.8925 39.557 76.96 38.2342C76.0662 36.9217 74.672 36.0145 72.7773 35.5128C70.8052 34.9906 69.1061 35.0786 67.6799 35.7768C66.2536 36.475 65.185 37.6195 64.4741 39.2106ZM86.0146 63.8453L93.6326 35.0769L100.825 36.9814L99.8264 40.7514L100.87 41.0279C101.601 40.1454 102.722 39.4284 104.233 38.877C105.755 38.2869 107.811 38.3348 110.402 39.0208C112.644 39.6147 114.459 40.6538 115.845 42.1381C117.28 43.594 118.221 45.3535 118.668 47.4166C119.125 49.441 119.036 51.6519 118.401 54.0493L113.855 71.2176L106.547 69.2823L110.94 52.6941C111.513 50.5287 111.402 48.7613 110.606 47.392C109.848 46.0328 108.484 45.0921 106.512 44.5699C104.269 43.9761 102.329 44.2693 100.693 45.4497C99.0662 46.5914 97.8997 48.4963 97.1932 51.1643L93.3228 65.7805L86.0146 63.8453ZM130.823 75.7106C128.928 75.2089 127.535 74.2193 126.643 72.7419C125.801 71.236 125.64 69.4971 126.163 67.525L130.463 51.2848L123.271 49.3803L124.868 43.3482L132.06 45.2527L134.426 36.3206L141.734 38.2558L139.369 47.1879L147.257 49.2767L145.659 55.3088L137.771 53.22L133.809 68.1842C133.502 69.3443 133.889 70.0676 134.972 70.3543L140.54 71.8288L138.943 77.8609L130.823 75.7106ZM145.094 79.4897L152.712 50.7213L160.02 52.6565L152.402 81.4249L145.094 79.4897ZM157.257 48.3248C155.942 47.9767 154.933 47.2544 154.231 46.158C153.567 45.0718 153.419 43.8327 153.787 42.4407C154.156 41.0487 154.898 40.0451 156.012 39.4299C157.166 38.825 158.4 38.6966 159.714 39.0447C161.068 39.4031 162.076 40.1253 162.74 41.2115C163.405 42.2977 163.552 43.5368 163.184 44.9288C162.815 46.3208 162.073 47.3244 160.959 47.9396C159.844 48.5548 158.61 48.6832 157.257 48.3248ZM164.097 84.5217L170.117 61.7853L162.809 59.8501L164.406 53.818L171.715 55.7532L173.128 50.4171C173.65 48.4451 174.644 47.0327 176.112 46.1798C177.628 45.2986 179.333 45.1088 181.228 45.6105L188.768 47.6072L187.171 53.6392L182.183 52.3184C181.1 52.0317 180.405 52.4684 180.098 53.6284L179.023 57.6884L186.563 59.6851L184.965 65.7172L177.425 63.7205L171.405 86.4569L164.097 84.5217ZM183.503 102.074L185.192 95.694L200.853 99.8409C201.935 100.128 202.63 99.691 202.937 98.5309L204.857 91.2808L203.813 91.0044C203.33 91.5798 202.672 92.1091 201.841 92.5924C201.01 93.0757 199.977 93.3815 198.743 93.5099C197.509 93.6383 196.022 93.4722 194.282 93.0114C192.039 92.4175 190.2 91.3926 188.765 89.9368C187.379 88.4525 186.462 86.6788 186.016 84.6157C185.569 82.5526 185.658 80.3417 186.282 77.9829L190.829 60.8147L198.137 62.7499L193.744 79.3382C193.171 81.5035 193.263 83.2658 194.02 84.6249C194.816 85.9943 196.2 86.9401 198.172 87.4623C200.415 88.0562 202.349 87.7823 203.976 86.6406C205.612 85.4602 206.784 83.536 207.49 80.8679L211.361 66.2517L218.669 68.1869L209.699 102.059C209.177 104.031 208.183 105.444 206.715 106.297C205.238 107.188 203.533 107.378 201.599 106.866L183.503 102.074Z" fill="#41403E"/>
</svg>
