<svg width="94" height="43" viewBox="0 0 94 43" fill="none" xmlns="http://www.w3.org/2000/svg">
<path d="M0.0800001 42L11.12 -2.86102e-06H24.92L35.96 42H27.8L25.52 32.76H10.52L8.24 42H0.0800001ZM12.38 25.44H23.66L18.56 4.98H17.48L12.38 25.44ZM54.0073 42.84C51.1273 42.84 48.5073 42.24 46.1473 41.04C43.8273 39.84 41.9873 38.1 40.6273 35.82C39.2673 33.54 38.5873 30.78 38.5873 27.54V26.7C38.5873 23.46 39.2673 20.7 40.6273 18.42C41.9873 16.14 43.8273 14.4 46.1473 13.2C48.5073 12 51.1273 11.4 54.0073 11.4C56.8473 11.4 59.2873 11.9 61.3273 12.9C63.3673 13.9 65.0073 15.28 66.2473 17.04C67.5273 18.76 68.3673 20.72 68.7673 22.92L61.4473 24.48C61.2873 23.28 60.9273 22.2 60.3673 21.24C59.8073 20.28 59.0073 19.52 57.9673 18.96C56.9673 18.4 55.7073 18.12 54.1873 18.12C52.6673 18.12 51.2873 18.46 50.0473 19.14C48.8473 19.78 47.8873 20.76 47.1673 22.08C46.4873 23.36 46.1473 24.94 46.1473 26.82V27.42C46.1473 29.3 46.4873 30.9 47.1673 32.22C47.8873 33.5 48.8473 34.48 50.0473 35.16C51.2873 35.8 52.6673 36.12 54.1873 36.12C56.4673 36.12 58.1873 35.54 59.3473 34.38C60.5473 33.18 61.3073 31.62 61.6273 29.7L68.9473 31.44C68.4273 33.56 67.5273 35.5 66.2473 37.26C65.0073 38.98 63.3673 40.34 61.3273 41.34C59.2873 42.34 56.8473 42.84 54.0073 42.84ZM84.3875 42C82.4275 42 80.8275 41.4 79.5875 40.2C78.3875 38.96 77.7875 37.32 77.7875 35.28V18.48H70.3475V12.24H77.7875V3H85.3475V12.24H93.5075V18.48H85.3475V33.96C85.3475 35.16 85.9075 35.76 87.0275 35.76H92.7875V42H84.3875Z" fill="#41403E"/>
</svg>
