<svg width="241" height="107" viewBox="0 0 241 107" fill="none" xmlns="http://www.w3.org/2000/svg">
<path d="M11.8671 106.09L0.436997 65.6752L26.4179 58.3273L28.3774 65.2555L10.0175 70.4481L12.7444 80.0899L29.4877 75.3545L31.4471 82.2828L14.7038 87.0181L17.5287 97.0063L36.235 91.7158L38.1944 98.6441L11.8671 106.09ZM55.0341 94.7544C51.3006 95.8104 48.012 95.8675 45.1684 94.9258C42.3248 93.9841 40.2283 92.0829 38.8788 89.2222L45.0862 85.596C45.7367 86.867 46.4787 87.8003 47.3122 88.3959C48.1843 88.9807 49.1312 89.3156 50.1529 89.4008C51.2022 89.4365 52.285 89.2966 53.4012 88.9809C55.0948 88.5019 56.2641 87.8595 56.9091 87.0535C57.5432 86.209 57.7351 85.3442 57.4847 84.4589C57.2344 83.5736 56.659 83.0089 55.7585 82.7647C54.8472 82.4821 53.5012 82.4263 51.7206 82.5973L50.0223 82.7659C47.912 82.947 45.9367 82.9445 44.0966 82.7582C42.2456 82.5335 40.651 81.9661 39.3127 81.0559C37.9745 80.1457 37.0387 78.7476 36.5053 76.8616C35.6998 74.0133 36.124 71.5447 37.7779 69.4558C39.4209 67.3283 41.936 65.7856 45.3232 64.8277C48.5179 63.9241 51.3751 63.8851 53.8948 64.7105C56.4146 65.5359 58.3282 67.0108 59.6356 69.1352L53.4684 73.1241C52.7469 71.7486 51.8179 70.8889 50.6814 70.5452C49.5835 70.1907 48.3417 70.2093 46.956 70.6012C45.5704 70.9931 44.5827 71.5426 43.9929 72.2498C43.3922 72.9186 43.2116 73.6763 43.4511 74.5231C43.7123 75.4469 44.2932 76.0308 45.1936 76.275C46.0832 76.4807 47.2149 76.5139 48.5889 76.3747L50.2871 76.2062C52.5515 75.9815 54.6422 75.9514 56.5593 76.1159C58.504 76.231 60.1455 76.7436 61.4837 77.6538C62.8495 78.5146 63.8154 79.9457 64.3815 81.9472C65.2306 84.9494 64.7922 87.5883 63.0664 89.8639C61.3681 92.0901 58.6907 93.7203 55.0341 94.7544ZM82.4405 86.1304C80.5544 86.6638 78.8515 86.5219 77.3318 85.7047C75.8396 84.838 74.8159 83.4232 74.2608 81.4602L69.6887 65.2943L62.5295 67.3191L60.8314 61.3146L67.9905 59.2898L65.4759 50.3986L72.7506 48.3412L75.2652 57.2324L83.1172 55.0117L84.8154 61.0162L76.9634 63.2369L81.1762 78.1326C81.5028 79.2873 82.2049 79.7123 83.2826 79.4075L88.8252 77.8399L90.5234 83.8444L82.4405 86.1304ZM96.6465 82.1127L88.5475 53.4759L95.8222 51.4185L103.921 80.0553L96.6465 82.1127ZM91.2378 49.0986C89.9291 49.4687 88.6931 49.361 87.5299 48.7755C86.4051 48.179 85.6468 47.188 85.2549 45.8024C84.863 44.4167 84.99 43.1753 85.6357 42.0782C86.32 40.9701 87.3165 40.231 88.6252 39.8609C89.9723 39.4799 91.2083 39.5876 92.3331 40.184C93.4578 40.7804 94.2161 41.7715 94.608 43.1571C94.9999 44.5428 94.873 45.7842 94.2272 46.8813C93.5814 47.9785 92.5849 48.7176 91.2378 49.0986ZM110.828 78.1019L102.729 49.4652L109.888 47.4404L110.77 50.5581L111.809 50.2642C112.037 49.1605 112.631 48.0989 113.589 47.0795C114.537 46.0216 115.954 45.2259 117.84 44.6925C119.88 44.1156 121.63 44.0571 123.091 44.517C124.54 44.9385 125.772 45.6918 126.785 46.7769L127.824 46.483C128.13 45.0663 128.766 43.785 129.73 42.6392C130.695 41.4935 132.274 40.6104 134.468 39.9899C136.239 39.4891 137.945 39.4223 139.587 39.7893C141.256 40.107 142.732 40.9158 144.014 42.216C145.324 43.4667 146.305 45.2468 146.959 47.5562L152.282 66.3779L145.007 68.4354L139.831 50.1332C139.385 48.5551 138.648 47.4955 137.622 46.9543C136.586 46.3746 135.336 46.2916 133.873 46.7052C132.218 47.1733 131.081 48.0769 130.462 49.4159C129.871 50.7055 129.853 52.3318 130.408 54.2948L135.192 71.2112L127.917 73.2687L122.741 54.9665C122.295 53.3884 121.559 52.3288 120.533 51.7876C119.496 51.2079 118.246 51.1249 116.783 51.5385C115.128 52.0066 113.991 52.9102 113.372 54.2491C112.781 55.5388 112.763 57.1651 113.318 59.1281L118.102 76.0445L110.828 78.1019ZM168.071 62.7854C166.031 63.3624 164.105 63.533 162.292 63.2974C160.469 63.0233 158.885 62.3487 157.542 61.2737C156.227 60.1493 155.291 58.6056 154.736 56.6426C154.181 54.6796 154.18 52.9131 154.734 51.3432C155.315 49.7239 156.341 48.3531 157.811 47.2306C159.308 46.0588 161.135 45.1681 163.29 44.5585L171.142 42.3378L170.685 40.7212C170.304 39.3741 169.57 38.3968 168.484 37.7895C167.387 37.1438 165.915 37.0821 164.067 37.6046C162.258 38.1163 161.031 38.9207 160.385 40.0178C159.728 41.0765 159.45 42.2983 159.551 43.6831L152.217 43.3256C152.265 41.7323 152.621 40.1976 153.284 38.7213C153.975 37.1957 155.064 35.8278 156.55 34.6175C158.065 33.3578 160.054 32.3797 162.517 31.683C166.289 30.6162 169.539 30.7155 172.266 31.9811C174.993 33.2466 176.863 35.6692 177.876 39.2487L180.896 49.9298C181.223 51.0845 181.925 51.5095 183.003 51.2046L185.312 50.5515L187.011 56.556L182.161 57.9276C180.737 58.3304 179.465 58.316 178.345 57.8844C177.225 57.4528 176.502 56.6597 176.176 55.505L176.159 55.4473L175.062 55.7575C175.039 56.2629 174.867 56.9767 174.546 57.899C174.213 58.7827 173.552 59.6765 172.56 60.5804C171.569 61.4843 170.072 62.2193 168.071 62.7854ZM167.676 56.5372C169.716 55.9602 171.213 54.934 172.167 53.4586C173.149 51.9337 173.374 50.2283 172.84 48.3423L172.677 47.7649L165.345 49.8387C163.998 50.2197 163.021 50.8077 162.414 51.6028C161.808 52.3979 161.651 53.315 161.945 54.3543C162.239 55.3935 162.883 56.126 163.876 56.5517C164.87 56.9774 166.136 56.9726 167.676 56.5372ZM200.058 52.8658C198.172 53.3992 196.469 53.2573 194.95 52.4401C193.457 51.5734 192.434 50.1586 191.879 48.1956L187.307 32.0297L180.147 34.0545L178.449 28.05L185.608 26.0252L183.094 17.134L190.368 15.0766L192.883 23.9678L200.735 21.7471L202.433 27.7516L194.581 29.9723L198.794 44.868C199.121 46.0227 199.823 46.4477 200.9 46.1429L206.443 44.5753L208.141 50.5798L200.058 52.8658ZM226.526 46.2531C223.678 47.0587 220.988 47.1751 218.457 46.6024C215.953 45.9803 213.775 44.7464 211.923 42.9008C210.098 41.0059 208.761 38.5573 207.912 35.555L207.716 34.8622C206.867 31.86 206.729 29.0931 207.302 26.5617C207.864 23.9918 209.053 21.8055 210.871 20.0027C212.679 18.1614 215.006 16.838 217.855 16.0324C220.664 15.2378 223.288 15.1816 225.726 15.864C228.153 16.5078 230.259 17.7827 232.045 19.6885C233.82 21.5559 235.122 23.9522 235.949 26.8775L236.651 29.3601L215.809 35.2548C216.441 37.196 217.624 38.5865 219.358 39.4263C221.092 40.2661 222.96 40.403 224.961 39.8369C227.001 39.26 228.377 38.3928 229.089 37.2354C229.801 36.0779 230.254 34.8896 230.45 33.6704L237.279 35.1062C237.023 36.2594 236.544 37.5795 235.842 39.0666C235.168 40.5043 234.104 41.8861 232.65 43.2119C231.185 44.4991 229.144 45.5129 226.526 46.2531ZM214.331 29.8113L227.726 26.023C227.104 24.4115 226.055 23.2741 224.579 22.6108C223.141 21.9366 221.479 21.8662 219.593 22.3997C217.63 22.9548 216.213 23.8961 215.341 25.2234C214.469 26.5507 214.133 28.08 214.331 29.8113Z" fill="#41403E"/>
</svg>
