<svg width="173" height="72" viewBox="0 0 173 72" fill="none" xmlns="http://www.w3.org/2000/svg">
<path d="M0.28 56V-3.8147e-06H23.32C26.84 -3.8147e-06 29.9333 0.719996 32.6 2.16C35.32 3.54666 37.4267 5.52 38.92 8.08C40.4667 10.64 41.24 13.68 41.24 17.2V18.32C41.24 21.7867 40.44 24.8267 38.84 27.44C37.2933 30 35.16 32 32.44 33.44C29.7733 34.8267 26.7333 35.52 23.32 35.52H10.84V56H0.28ZM10.84 25.92H22.28C24.7867 25.92 26.8133 25.2267 28.36 23.84C29.9067 22.4533 30.68 20.56 30.68 18.16V17.36C30.68 14.96 29.9067 13.0667 28.36 11.68C26.8133 10.2933 24.7867 9.6 22.28 9.6H10.84V25.92ZM47.2813 56V-3.8147e-06H57.3613V56H47.2813ZM79.2513 57.12C76.4246 57.12 73.8913 56.64 71.6513 55.68C69.4113 54.6667 67.6246 53.2267 66.2913 51.36C65.0113 49.44 64.3713 47.12 64.3713 44.4C64.3713 41.68 65.0113 39.4133 66.2913 37.6C67.6246 35.7333 69.4379 34.3467 71.7313 33.44C74.0779 32.48 76.7446 32 79.7313 32H90.6113V29.76C90.6113 27.8933 90.0246 26.3733 88.8513 25.2C87.6779 23.9733 85.8113 23.36 83.2513 23.36C80.7446 23.36 78.8779 23.9467 77.6513 25.12C76.4246 26.24 75.6246 27.7067 75.2513 29.52L65.9713 26.4C66.6113 24.3733 67.6246 22.5333 69.0113 20.88C70.4513 19.1733 72.3446 17.8133 74.6913 16.8C77.0913 15.7333 79.9979 15.2 83.4113 15.2C88.6379 15.2 92.7713 16.5067 95.8113 19.12C98.8513 21.7333 100.371 25.52 100.371 30.48V45.28C100.371 46.88 101.118 47.68 102.611 47.68H105.811V56H99.0913C97.1179 56 95.4913 55.52 94.2113 54.56C92.9313 53.6 92.2913 52.32 92.2913 50.72V50.64H90.7713C90.5579 51.28 90.0779 52.1333 89.3313 53.2C88.5846 54.2133 87.4113 55.12 85.8113 55.92C84.2113 56.72 82.0246 57.12 79.2513 57.12ZM81.0113 48.96C83.8379 48.96 86.1313 48.1867 87.8913 46.64C89.7046 45.04 90.6113 42.9333 90.6113 40.32V39.52H80.4513C78.5846 39.52 77.1179 39.92 76.0513 40.72C74.9846 41.52 74.4513 42.64 74.4513 44.08C74.4513 45.52 75.0113 46.6933 76.1313 47.6C77.2513 48.5067 78.8779 48.96 81.0113 48.96ZM114.807 72V63.2H136.407C137.901 63.2 138.647 62.4 138.647 60.8V50.8H137.207C136.781 51.7067 136.114 52.6133 135.207 53.52C134.301 54.4267 133.074 55.1733 131.527 55.76C129.981 56.3467 128.007 56.64 125.607 56.64C122.514 56.64 119.794 55.9467 117.447 54.56C115.154 53.12 113.367 51.1467 112.087 48.64C110.807 46.1333 110.167 43.2533 110.167 40V16.32H120.247V39.2C120.247 42.1867 120.967 44.4267 122.407 45.92C123.901 47.4133 126.007 48.16 128.727 48.16C131.821 48.16 134.221 47.1467 135.927 45.12C137.634 43.04 138.487 40.16 138.487 36.48V16.32H148.567V63.04C148.567 65.76 147.767 67.92 146.167 69.52C144.567 71.1733 142.434 72 139.767 72H114.807ZM164.504 57.12C162.371 57.12 160.558 56.4267 159.064 55.04C157.624 53.6 156.904 51.76 156.904 49.52C156.904 47.28 157.624 45.4667 159.064 44.08C160.558 42.64 162.371 41.92 164.504 41.92C166.691 41.92 168.504 42.64 169.944 44.08C171.384 45.4667 172.104 47.28 172.104 49.52C172.104 51.76 171.384 53.6 169.944 55.04C168.504 56.4267 166.691 57.12 164.504 57.12Z" fill="#41403E"/>
</svg>
